name GIL02_slow1EmgEnv.mot
datacolumns 51
datarows 10
range 0.17592588 0.18425921
endheader
                time	   rect_fem_l_emgRec	   rect_fem_l_emgEnv	   rect_fem_l_emgAve	   rect_fem_l_emgSDp	   rect_fem_l_emgSDm	   rect_fem_r_emgRec	   rect_fem_r_emgEnv	   rect_fem_r_emgAve	   rect_fem_r_emgSDp	   rect_fem_r_emgSDm	   med_hams_l_emgRec	   med_hams_l_emgEnv	   med_hams_l_emgAve	   med_hams_l_emgSDp	   med_hams_l_emgSDm	   med_hams_r_emgRec	   med_hams_r_emgEnv	   med_hams_r_emgAve	   med_hams_r_emgSDp	   med_hams_r_emgSDm	   lat_hams_l_emgRec	   lat_hams_l_emgEnv	   lat_hams_l_emgAve	   lat_hams_l_emgSDp	   lat_hams_l_emgSDm	   lat_hams_r_emgRec	   lat_hams_r_emgEnv	   lat_hams_r_emgAve	   lat_hams_r_emgSDp	   lat_hams_r_emgSDm	    tib_ant_l_emgRec	    tib_ant_l_emgEnv	    tib_ant_l_emgAve	    tib_ant_l_emgSDp	    tib_ant_l_emgSDm	    tib_ant_r_emgRec	    tib_ant_r_emgEnv	    tib_ant_r_emgAve	    tib_ant_r_emgSDp	    tib_ant_r_emgSDm	    gas_sol_l_emgRec	    gas_sol_l_emgEnv	    gas_sol_l_emgAve	    gas_sol_l_emgSDp	    gas_sol_l_emgSDm	    gas_sol_r_emgRec	    gas_sol_r_emgEnv	    gas_sol_r_emgAve	    gas_sol_r_emgSDp	    gas_sol_r_emgSDm	
          0.17592588	          0.16172469	          0.15458706	          0.16320688	          0.28545301	          0.04096074	          0.03775179	          0.64973181	          0.36412758	          0.46488980	          0.26336535	          0.04663668	          0.09125745	          0.15983577	          0.20889604	          0.11077550	          0.02117392	          0.02006279	          0.04730023	          0.07084207	          0.02375840	          0.01191157	          0.00709159	          0.32479805	          0.52790877	          0.12168732	          0.01966893	          0.13435220	          0.24811609	          0.36493134	          0.13130084	          0.09847281	          0.47926080	          0.48385707	          0.61432880	          0.35338533	          0.02968450	          0.13209229	          0.12103428	          0.19104301	          0.05102555	          0.01289955	          0.02147926	          0.01961221	          0.04290235	         -0.00367792	          0.00574075	          0.11984845	          0.16281286	          0.20067693	          0.12494879	
          0.17685181	          0.11791251	          0.15392602	          0.16355965	          0.28597364	          0.04114565	          0.07513693	          0.63029587	          0.35974950	          0.45993317	          0.25956582	          0.04492055	          0.09138543	          0.16015719	          0.20906198	          0.11125240	          0.02574775	          0.02062135	          0.04726136	          0.07078975	          0.02373298	          0.00375021	          0.00749425	          0.32659179	          0.53006622	          0.12311736	          0.02383374	          0.13579939	          0.24580014	          0.36233208	          0.12926820	          0.11499789	          0.48780733	          0.48757511	          0.61819899	          0.35695124	          0.02610767	          0.13033539	          0.11946320	          0.18876774	          0.05015866	          0.01254977	          0.02206659	          0.01975714	          0.04292540	         -0.00341112	          0.01662109	          0.12529420	          0.16623470	          0.20484719	          0.12762222	
          0.17777774	          0.07947793	          0.15322156	          0.16391072	          0.28649123	          0.04133020	          0.01444741	          0.61061207	          0.35540617	          0.45501410	          0.25579823	          0.00883582	          0.09160977	          0.16047914	          0.20923065	          0.11172763	          0.00440497	          0.02120265	          0.04723027	          0.07075101	          0.02370954	          0.00679552	          0.00806532	          0.32836932	          0.53219739	          0.12454125	          0.09226190	          0.13729002	          0.24350297	          0.35975553	          0.12725042	          0.29291106	          0.49617148	          0.49127361	          0.62204076	          0.36050646	          0.01535987	          0.12861768	          0.11792769	          0.18654305	          0.04931233	          0.00873125	          0.02265376	          0.01990484	          0.04295309	         -0.00314342	          0.01380542	          0.13089627	          0.16967484	          0.20904375	          0.13030593	
          0.17870365	          0.08813696	          0.15247387	          0.16426001	          0.28700560	          0.04151443	          0.01902517	          0.59072154	          0.35109949	          0.45013496	          0.25206402	          0.00160494	          0.09193423	          0.16080156	          0.20940205	          0.11220106	          0.00105730	          0.02180542	          0.04720666	          0.07072551	          0.02368782	          0.02097025	          0.00881224	          0.33013049	          0.53430204	          0.12595893	          0.06570537	          0.13881504	          0.24122515	          0.35720245	          0.12524786	          0.32114181	          0.50434654	          0.49495220	          0.62585373	          0.36405067	          0.00869422	          0.12694149	          0.11642844	          0.18437020	          0.04848668	          0.01179294	          0.02323956	          0.02005519	          0.04298530	         -0.00287491	          0.01373590	          0.13665141	          0.17313248	          0.21326553	          0.13299943	
          0.17962958	          0.05366373	          0.15168332	          0.16460745	          0.28751654	          0.04169836	          0.00976058	          0.57066528	          0.34683082	          0.44529749	          0.24836414	          0.06177609	          0.09236242	          0.16112445	          0.20957620	          0.11267270	          0.01029731	          0.02242838	          0.04719025	          0.07071294	          0.02366755	          0.00574434	          0.00974224	          0.33187497	          0.53637995	          0.12736998	          0.05951077	          0.14036546	          0.23896697	          0.35467342	          0.12326053	          0.33595591	          0.51232643	          0.49861032	          0.62963724	          0.36758339	          0.00337911	          0.12530891	          0.11496598	          0.18225024	          0.04768171	          0.01431166	          0.02382283	          0.02020813	          0.04302193	         -0.00260566	          0.02150755	          0.14255600	          0.17660689	          0.21751155	          0.13570223	
          0.18055551	          0.06995462	          0.15085040	          0.16495286	          0.28802381	          0.04188191	          0.06098736	          0.55048399	          0.34260175	          0.44050372	          0.24469977	          0.07519848	          0.09289785	          0.16144785	          0.20975317	          0.11314254	          0.00214868	          0.02307021	          0.04718071	          0.07071292	          0.02364850	          0.00180807	          0.01086241	          0.33360264	          0.53843084	          0.12877443	          0.12075201	          0.14193236	          0.23672886	          0.35216907	          0.12128865	          0.21583528	          0.52010577	          0.50224757	          0.63339092	          0.37110423	          0.00144299	          0.12372176	          0.11354093	          0.18018433	          0.04689752	          0.01169732	          0.02440242	          0.02036353	          0.04306285	         -0.00233578	          0.02289985	          0.14860612	          0.18009730	          0.22178075	          0.13841385	
          0.18148144	          0.14711305	          0.14997578	          0.16529624	          0.28852730	          0.04206518	          0.16723433	          0.53021805	          0.33841383	          0.43575559	          0.24107208	          0.03950896	          0.09354384	          0.16177168	          0.20993290	          0.11361047	          0.00434597	          0.02372954	          0.04717781	          0.07072519	          0.02363043	          0.00994897	          0.01217958	          0.33531317	          0.54045440	          0.13017194	          0.03848690	          0.14350686	          0.23451121	          0.34969003	          0.11933239	          0.01754890	          0.52767986	          0.50586355	          0.63711433	          0.37461276	          0.01244199	          0.12218161	          0.11215381	          0.17817352	          0.04613411	          0.00877746	          0.02497723	          0.02052131	          0.04310796	         -0.00206535	          0.01221990	          0.15479750	          0.18360291	          0.22607207	          0.14113376	
          0.18240736	          0.06965696	          0.14906029	          0.16563745	          0.28902675	          0.04224814	          0.11937170	          0.50990730	          0.33426854	          0.43105501	          0.23748207	          0.01774718	          0.09430358	          0.16209599	          0.21011548	          0.11407651	          0.00631050	          0.02440499	          0.04718124	          0.07074939	          0.02361310	          0.00975228	          0.01370035	          0.33700642	          0.54245049	          0.13156235	          0.06425321	          0.14508024	          0.23231450	          0.34723703	          0.11739197	          0.12906387	          0.53504470	          0.50945777	          0.64080694	          0.37810859	          0.03542497	          0.12068973	          0.11080521	          0.17621887	          0.04539154	          0.00066079	          0.02554618	          0.02068136	          0.04315716	         -0.00179444	          0.00635478	          0.16112559	          0.18712300	          0.23038449	          0.14386151	
          0.18333329	          0.03969150	          0.14810492	          0.16597636	          0.28952197	          0.04243075	          0.04617695	          0.48959102	          0.33016741	          0.42640384	          0.23393099	          0.02220569	          0.09518006	          0.16242075	          0.21030090	          0.11454060	          0.01304857	          0.02509513	          0.04719074	          0.07078522	          0.02359625	          0.01015019	          0.01543105	          0.33868212	          0.54441878	          0.13294545	          0.01802433	          0.14664386	          0.23013903	          0.34481055	          0.11546752	          0.24407251	          0.54219706	          0.51302981	          0.64446832	          0.38159131	          0.04402256	          0.11924714	          0.10949560	          0.17432138	          0.04466983	          0.01381175	          0.02610824	          0.02084359	          0.04321034	         -0.00152317	          0.02247116	          0.16758551	          0.19065675	          0.23471696	          0.14659655	
          0.18425921	          0.02564988	          0.14711083	          0.16631298	          0.29001284	          0.04261311	          0.06669737	          0.46930778	          0.32611179	          0.42180386	          0.23041973	          0.03491731	          0.09617608	          0.16274595	          0.21048919	          0.11500272	          0.01631398	          0.02579853	          0.04720605	          0.07083240	          0.02357970	          0.03323692	          0.01737769	          0.34033993	          0.54635890	          0.13432096	          0.00093228	          0.14818927	          0.22798517	          0.34241119	          0.11355916	          0.27182903	          0.54913442	          0.51657915	          0.64809793	          0.38506037	          0.01928658	          0.11785457	          0.10822552	          0.17248201	          0.04396903	          0.03206867	          0.02666241	          0.02100790	          0.04326740	         -0.00125159	          0.02501773	          0.17417211	          0.19420345	          0.23906845	          0.14933845	
